<svg version="1.1" id="Layer_1" xmlns="http://www.w3.org/2000/svg" xmlns:xlink="http://www.w3.org/1999/xlink" x="0px" y="0px"
	 width="100%" viewBox="0 0 512 512" enable-background="new 0 0 512 512" xml:space="preserve">
<path fill="#000000" opacity="1.000000" stroke="none" 
	d="
M1.000000,183.000000 
	C1.000000,122.000000 1.000000,61.500000 1.000000,1.000000 
	C171.666672,1.000000 342.333344,1.000000 513.000000,1.000000 
	C513.000000,171.666672 513.000000,342.333344 513.000000,513.000000 
	C342.333344,513.000000 171.666672,513.000000 1.000000,513.000000 
	C1.000000,403.166656 1.000000,293.333344 1.000000,183.000000 
M492.000122,294.500000 
	C492.000122,233.751099 492.000122,173.002182 492.000122,111.999847 
	C489.811951,111.999847 488.171539,111.999847 486.531128,111.999847 
	C462.871155,111.999847 439.211212,112.002716 415.551239,111.998535 
	C405.015289,111.996674 402.002533,108.932526 402.001007,98.226051 
	C401.997925,76.398895 402.000092,54.571743 402.000092,32.744591 
	C402.000092,29.288998 402.000122,25.833406 402.000122,21.999840 
	C399.971252,21.999840 398.348419,21.999838 396.725586,21.999838 
	C336.076080,21.999849 275.426605,21.997387 214.777115,22.001642 
	C199.885925,22.002686 192.004471,29.878950 192.002228,44.768997 
	C191.995651,88.756538 191.999863,132.744080 191.999863,176.731628 
	C191.999863,178.353943 191.999863,179.976242 191.999863,182.000153 
	C201.509048,182.000153 210.627426,181.996887 219.745819,182.000748 
	C246.388901,182.012024 262.994537,198.640533 262.997894,225.335724 
	C263.004639,278.987183 262.999878,332.638672 262.999908,386.290131 
	C262.999908,388.073853 262.999878,389.857605 262.999878,391.763245 
	C273.012787,391.763245 282.586182,391.763245 291.993500,391.763245 
	C299.720581,343.185150 325.477936,309.284149 373.257904,296.255768 
	C421.179779,283.188690 460.597229,299.554749 492.000122,337.965546 
	C492.000122,323.415039 492.000122,309.457520 492.000122,294.500000 
M162.500000,491.999725 
	C181.827148,491.999634 201.154282,492.008209 220.481430,491.996613 
	C235.044144,491.987885 242.995087,484.031189 242.996231,469.444824 
	C243.002670,387.803894 243.002777,306.162994 242.996078,224.522064 
	C242.994873,209.927917 235.060684,202.005020 220.457153,202.003387 
	C161.808975,201.996826 103.160805,201.996704 44.512630,202.003479 
	C29.920687,202.005173 22.004576,209.932297 22.003521,224.547241 
	C21.997637,306.188171 21.997576,387.829071 22.003588,469.470001 
	C22.004662,484.056671 29.945072,491.993011 44.536884,491.996399 
	C83.524590,492.005432 122.512291,491.999634 162.500000,491.999725 
M312.730804,391.225647 
	C312.563751,392.379120 312.340942,393.527588 312.237640,394.686737 
	C307.222595,450.973328 356.922729,498.568695 413.033264,491.222687 
	C465.429688,484.362946 500.381866,435.835144 490.145111,384.160126 
	C480.773743,336.853668 434.989532,305.283264 387.184723,313.164062 
	C348.452698,319.549194 316.730621,352.481781 312.730804,391.225647 
M422.000488,82.464874 
	C422.000488,85.564987 422.000488,88.665100 422.000488,91.582108 
	C440.656311,91.582108 458.744659,91.582108 476.008118,91.582108 
	C458.187714,73.731133 440.168610,55.681099 422.000488,37.481831 
	C422.000488,52.039452 422.000488,66.757675 422.000488,82.464874 
z"/>
<path fill="#EDEBFD" opacity="1.000000" stroke="none" 
	d="
M492.000122,295.000000 
	C492.000122,309.457520 492.000122,323.415039 492.000122,337.965546 
	C460.597229,299.554749 421.179779,283.188690 373.257904,296.255768 
	C325.477936,309.284149 299.720581,343.185150 291.993500,391.763245 
	C282.586182,391.763245 273.012787,391.763245 262.999878,391.763245 
	C262.999878,389.857605 262.999908,388.073853 262.999908,386.290131 
	C262.999878,332.638672 263.004639,278.987183 262.997894,225.335724 
	C262.994537,198.640533 246.388901,182.012024 219.745819,182.000748 
	C210.627426,181.996887 201.509048,182.000153 191.999863,182.000153 
	C191.999863,179.976242 191.999863,178.353943 191.999863,176.731628 
	C191.999863,132.744080 191.995651,88.756538 192.002228,44.768997 
	C192.004471,29.878950 199.885925,22.002686 214.777115,22.001642 
	C275.426605,21.997387 336.076080,21.999849 396.725586,21.999838 
	C398.348419,21.999838 399.971252,21.999840 402.000122,21.999840 
	C402.000122,25.833406 402.000092,29.288998 402.000092,32.744591 
	C402.000092,54.571743 401.997925,76.398895 402.001007,98.226051 
	C402.002533,108.932526 405.015289,111.996674 415.551239,111.998535 
	C439.211212,112.002716 462.871155,111.999847 486.531128,111.999847 
	C488.171539,111.999847 489.811951,111.999847 492.000122,111.999847 
	C492.000122,173.002182 492.000122,233.751099 492.000122,295.000000 
M212.133514,113.730347 
	C214.575546,120.080025 217.098999,121.974907 223.556061,121.987099 
	C242.544067,122.022957 261.532288,122.032829 280.520264,121.983566 
	C288.089142,121.963928 291.957764,118.155281 291.980377,110.655090 
	C292.038116,91.500618 292.040802,72.345718 291.978455,53.191277 
	C291.954834,45.937466 288.091064,42.046844 280.874481,42.022434 
	C261.720032,41.957630 242.565155,41.966518 223.410645,42.017033 
	C215.880646,42.036892 212.031387,45.877598 212.017899,53.399837 
	C211.982361,73.220360 212.033539,93.041031 212.133514,113.730347 
M382.500000,171.999313 
	C373.508392,171.999313 364.516785,171.997726 355.525177,171.999725 
	C344.368927,172.002228 333.211090,171.896484 322.057129,172.057800 
	C316.297546,172.141083 312.159119,176.378738 312.028168,181.751434 
	C311.892303,187.326157 316.108551,191.630447 322.068115,191.981094 
	C322.898010,192.029922 323.732819,192.000107 324.565338,192.000122 
	C369.523438,192.000748 414.481506,192.001602 459.439606,191.996017 
	C460.770386,191.995850 462.456055,192.433502 463.366089,191.796005 
	C466.203827,189.808182 469.952484,187.866638 471.051971,185.020264 
	C472.059845,182.411133 471.057556,177.794083 469.155365,175.634766 
	C467.210449,173.426956 463.104401,172.182892 459.927155,172.149414 
	C434.453735,171.880966 408.976257,171.999329 382.500000,171.999313 
M353.500000,232.000687 
	C389.133453,232.000610 424.766907,232.016052 460.400360,231.987274 
	C467.499237,231.981537 472.101929,227.836975 471.969269,221.779327 
	C471.840515,215.900223 467.367920,212.016525 460.466583,212.012695 
	C414.842468,211.987320 369.218323,211.987366 323.594208,212.012207 
	C316.444000,212.016098 311.891846,216.113327 312.028290,222.211716 
	C312.160034,228.100327 316.620789,231.951096 323.527069,231.987534 
	C333.184448,232.038513 342.842346,232.000580 353.500000,232.000687 
M360.500000,272.000671 
	C393.635773,272.000671 426.771545,272.010925 459.907318,271.992798 
	C467.439178,271.988678 472.109344,267.983429 471.969238,261.772858 
	C471.833130,255.740021 467.307190,252.009506 459.960571,252.007034 
	C414.669464,251.991730 369.378357,251.991806 324.087250,252.006760 
	C316.544312,252.009262 311.885040,256.002777 312.028259,262.218231 
	C312.167542,268.260773 316.683136,271.974701 324.033081,271.992798 
	C335.855316,272.021912 347.677673,272.000671 360.500000,272.000671 
M336.502106,112.002716 
	C348.313446,111.998222 360.126373,112.108421 371.935425,111.940979 
	C377.863098,111.856918 382.102905,107.303772 381.971375,101.760979 
	C381.844055,96.395821 377.704224,92.105133 371.964783,92.058205 
	C355.330261,91.922180 338.693146,91.923561 322.058563,92.056976 
	C316.303192,92.103142 312.167633,96.362053 312.026123,101.731270 
	C311.879303,107.301445 316.083771,111.721039 322.030060,111.954758 
	C326.514923,112.131027 331.011932,111.998055 336.502106,112.002716 
M376.849640,53.264507 
	C374.755829,52.842232 372.664337,52.067692 370.567841,52.053844 
	C354.911102,51.950451 339.253326,51.969025 323.596008,52.010315 
	C316.437927,52.029194 311.889771,56.107117 312.026184,62.211853 
	C312.157837,68.103256 316.618713,71.968956 323.528900,71.988472 
	C339.186188,72.032684 354.843842,71.962814 370.501007,72.025467 
	C375.470245,72.045349 379.324921,70.369217 381.211792,65.548241 
	C383.113953,60.688316 381.522522,56.794651 376.849640,53.264507 
M353.499817,131.997284 
	C343.185760,131.999130 332.870819,131.919418 322.558014,132.033615 
	C316.433258,132.101440 312.172760,136.175476 312.026062,141.730698 
	C311.874176,147.481369 316.228699,151.920258 322.527252,151.960968 
	C338.829407,152.066299 355.133148,152.064224 371.435333,151.962677 
	C377.728851,151.923477 382.106476,147.494995 381.971405,141.762634 
	C381.840942,136.227859 377.555115,132.157608 371.467377,132.028366 
	C365.813812,131.908325 360.155762,131.999252 353.499817,131.997284 
z"/>
<path fill="#615285" opacity="1.000000" stroke="none" 
	d="
M162.000000,491.999725 
	C122.512291,491.999634 83.524590,492.005432 44.536884,491.996399 
	C29.945072,491.993011 22.004662,484.056671 22.003588,469.470001 
	C21.997576,387.829071 21.997637,306.188171 22.003521,224.547241 
	C22.004576,209.932297 29.920687,202.005173 44.512630,202.003479 
	C103.160805,201.996704 161.808975,201.996826 220.457153,202.003387 
	C235.060684,202.005020 242.994873,209.927917 242.996078,224.522064 
	C243.002777,306.162994 243.002670,387.803894 242.996231,469.444824 
	C242.995087,484.031189 235.044144,491.987885 220.481430,491.996613 
	C201.154282,492.008209 181.827148,491.999634 162.000000,491.999725 
M42.000141,265.499390 
	C42.000443,270.494781 41.960670,275.490601 42.010414,280.485504 
	C42.085552,288.030792 45.878803,291.975037 53.329121,291.980011 
	C105.781250,292.015167 158.233414,292.015350 210.685532,291.979736 
	C218.118729,291.974670 221.958527,288.018585 221.983368,280.465515 
	C222.034866,264.813324 222.034714,249.160690 221.983459,233.508469 
	C221.958755,225.960526 218.119080,222.024338 210.666046,222.019485 
	C158.213928,221.985291 105.761765,221.984924 53.309635,222.020004 
	C45.865639,222.024979 42.053951,225.969727 42.014423,233.528030 
	C41.960434,243.851654 42.000431,254.175781 42.000141,265.499390 
M218.761688,469.328033 
	C219.841080,466.294159 221.790588,463.278137 221.853363,460.223358 
	C222.171570,444.742828 222.028137,429.252167 221.988083,413.765167 
	C221.967712,405.890167 218.188904,402.038544 210.422638,402.014740 
	C194.769180,401.966766 179.115341,401.963715 163.461914,402.016602 
	C155.933624,402.042023 152.045181,405.895782 152.017960,413.376282 
	C151.960968,429.029694 151.969910,444.683533 152.013260,460.337036 
	C152.034836,468.129120 155.875854,471.964539 163.680679,471.986725 
	C179.167633,472.030792 194.656143,472.102600 210.140625,471.902039 
	C212.820297,471.867340 215.483337,470.547485 218.761688,469.328033 
M71.500084,472.000122 
	C80.984283,472.000061 90.468559,472.024719 99.952652,471.992462 
	C108.144165,471.964600 111.965958,468.253296 111.987694,460.214966 
	C112.029533,444.740875 112.027344,429.266510 111.988480,413.792389 
	C111.968674,405.908722 108.200844,402.040375 100.465652,402.015503 
	C84.825211,401.965240 69.184380,401.966888 53.543930,402.015045 
	C45.983879,402.038300 42.049198,405.862091 42.019943,413.278900 
	C41.957596,429.085632 41.957916,444.893005 42.019772,460.699738 
	C42.048828,468.125214 45.978638,471.919098 53.528557,471.989197 
	C59.185314,472.041718 64.842941,471.999908 71.500084,472.000122 
M59.547752,382.000122 
	C73.026398,382.000061 86.505104,382.023285 99.983673,381.991241 
	C108.165596,381.971802 111.967049,378.249023 111.988136,370.182373 
	C112.028580,354.707001 112.029259,339.231354 111.987724,323.756012 
	C111.966187,315.729065 108.142426,312.023163 99.928574,312.008118 
	C84.619553,311.980042 69.310402,311.978210 54.001396,312.008881 
	C45.817329,312.025269 42.030430,315.746124 42.010948,323.821289 
	C41.973614,339.296661 41.972176,354.772278 42.011829,370.247650 
	C42.031963,378.104065 45.817863,381.895142 53.577065,381.996399 
	C55.240810,382.018127 56.905083,381.999939 59.547752,382.000122 
M151.999725,346.500000 
	C151.999832,354.320312 151.975494,362.140717 152.006744,369.960907 
	C152.039459,378.146362 155.750198,381.967255 163.787949,381.988159 
	C179.262054,382.028442 194.736404,382.027527 210.210510,381.988403 
	C218.087189,381.968506 221.957886,378.196960 221.983841,370.456268 
	C222.036255,354.815857 222.034088,339.175018 221.984573,323.534607 
	C221.960663,315.981018 218.130188,312.049316 210.706955,312.019989 
	C194.900223,311.957489 179.092896,311.957153 163.286163,312.020142 
	C155.862061,312.049713 152.066757,315.981293 152.011948,323.536713 
	C151.958847,330.857452 151.999985,338.178864 151.999725,346.500000 
z"/>
<path fill="#F9DD64" opacity="1.000000" stroke="none" 
	d="
M312.788300,390.782654 
	C316.730621,352.481781 348.452698,319.549194 387.184723,313.164062 
	C434.989532,305.283264 480.773743,336.853668 490.145111,384.160126 
	C500.381866,435.835144 465.429688,484.362946 413.033264,491.222687 
	C356.922729,498.568695 307.222595,450.973328 312.237640,394.686737 
	C312.340942,393.527588 312.563751,392.379120 312.788300,390.782654 
M390.863556,409.882202 
	C394.268402,410.583282 397.643890,411.594696 401.084259,411.919769 
	C407.884155,412.562286 412.217834,416.542267 411.962463,422.411407 
	C411.715729,428.081085 407.293335,431.908295 400.742493,431.982361 
	C394.580841,432.052063 388.414856,431.885498 382.256348,432.041840 
	C376.240784,432.194489 371.988586,436.499512 372.028137,442.062927 
	C372.067688,447.629150 376.322693,451.756134 382.389526,451.973877 
	C385.494446,452.085358 388.606628,451.993408 392.011871,451.993408 
	C392.011871,455.673431 391.895477,458.813965 392.037109,461.942841 
	C392.297668,467.698730 396.398315,471.844391 401.770355,471.971252 
	C407.322052,472.102386 411.708740,467.861542 411.956909,461.895905 
	C412.115692,458.079315 411.986664,454.250732 411.986664,450.571106 
	C412.510590,450.257996 412.782684,450.070190 413.075562,449.923981 
	C427.148407,442.897736 434.159515,430.361084 431.545715,416.889984 
	C428.700317,402.225220 418.100372,393.273468 402.056458,391.986053 
	C396.015167,391.501282 391.876953,387.261566 392.033234,381.716949 
	C392.189331,376.179688 396.483063,372.147919 402.616425,372.033203 
	C408.943237,371.914917 415.276306,372.106537 421.602051,371.962250 
	C427.653320,371.824249 431.927795,367.615265 431.970367,362.065094 
	C432.012970,356.509003 427.748993,352.263489 421.738953,352.029358 
	C418.623749,351.907990 415.499939,352.008026 412.002289,352.008026 
	C412.002289,348.931519 412.026031,346.307220 411.997711,343.683502 
	C411.920471,336.522980 407.924866,331.940887 401.860138,332.026947 
	C395.961639,332.110657 392.089661,336.579254 392.005066,343.457642 
	C391.964172,346.782013 391.998016,350.107330 391.998016,353.324158 
	C377.600006,361.275543 371.484650,370.132629 372.077881,383.001282 
	C372.650665,395.426178 378.959259,404.230011 390.863556,409.882202 
z"/>
<path fill="#D1D1EF" opacity="1.000000" stroke="none" 
	d="
M422.000488,81.970383 
	C422.000488,66.757675 422.000488,52.039452 422.000488,37.481831 
	C440.168610,55.681099 458.187714,73.731133 476.008118,91.582108 
	C458.744659,91.582108 440.656311,91.582108 422.000488,91.582108 
	C422.000488,88.665100 422.000488,85.564987 422.000488,81.970383 
z"/>
<path fill="#000000" opacity="1.000000" stroke="none" 
	d="
M212.091858,113.295990 
	C212.033539,93.041031 211.982361,73.220360 212.017899,53.399837 
	C212.031387,45.877598 215.880646,42.036892 223.410645,42.017033 
	C242.565155,41.966518 261.720032,41.957630 280.874481,42.022434 
	C288.091064,42.046844 291.954834,45.937466 291.978455,53.191277 
	C292.040802,72.345718 292.038116,91.500618 291.980377,110.655090 
	C291.957764,118.155281 288.089142,121.963928 280.520264,121.983566 
	C261.532288,122.032829 242.544067,122.022957 223.556061,121.987099 
	C217.098999,121.974907 214.575546,120.080025 212.091858,113.295990 
M246.504990,101.998817 
	C254.918777,101.998817 263.332550,101.998817 271.694519,101.998817 
	C271.694519,88.346306 271.694519,75.304321 271.694519,62.305599 
	C258.346100,62.305599 245.304123,62.305599 232.305664,62.305599 
	C232.305664,75.654221 232.305664,88.696106 232.305664,101.998817 
	C236.907944,101.998817 241.208160,101.998817 246.504990,101.998817 
z"/>
<path fill="#010101" opacity="1.000000" stroke="none" 
	d="
M383.000000,171.999313 
	C408.976257,171.999329 434.453735,171.880966 459.927155,172.149414 
	C463.104401,172.182892 467.210449,173.426956 469.155365,175.634766 
	C471.057556,177.794083 472.059845,182.411133 471.051971,185.020264 
	C469.952484,187.866638 466.203827,189.808182 463.366089,191.796005 
	C462.456055,192.433502 460.770386,191.995850 459.439606,191.996017 
	C414.481506,192.001602 369.523438,192.000748 324.565338,192.000122 
	C323.732819,192.000107 322.898010,192.029922 322.068115,191.981094 
	C316.108551,191.630447 311.892303,187.326157 312.028168,181.751434 
	C312.159119,176.378738 316.297546,172.141083 322.057129,172.057800 
	C333.211090,171.896484 344.368927,172.002228 355.525177,171.999725 
	C364.516785,171.997726 373.508392,171.999313 383.000000,171.999313 
z"/>
<path fill="#010101" opacity="1.000000" stroke="none" 
	d="
M353.000000,232.000687 
	C342.842346,232.000580 333.184448,232.038513 323.527069,231.987534 
	C316.620789,231.951096 312.160034,228.100327 312.028290,222.211716 
	C311.891846,216.113327 316.444000,212.016098 323.594208,212.012207 
	C369.218323,211.987366 414.842468,211.987320 460.466583,212.012695 
	C467.367920,212.016525 471.840515,215.900223 471.969269,221.779327 
	C472.101929,227.836975 467.499237,231.981537 460.400360,231.987274 
	C424.766907,232.016052 389.133453,232.000610 353.000000,232.000687 
z"/>
<path fill="#010101" opacity="1.000000" stroke="none" 
	d="
M360.000000,272.000671 
	C347.677673,272.000671 335.855316,272.021912 324.033081,271.992798 
	C316.683136,271.974701 312.167542,268.260773 312.028259,262.218231 
	C311.885040,256.002777 316.544312,252.009262 324.087250,252.006760 
	C369.378357,251.991806 414.669464,251.991730 459.960571,252.007034 
	C467.307190,252.009506 471.833130,255.740021 471.969238,261.772858 
	C472.109344,267.983429 467.439178,271.988678 459.907318,271.992798 
	C426.771545,272.010925 393.635773,272.000671 360.000000,272.000671 
z"/>
<path fill="#020202" opacity="1.000000" stroke="none" 
	d="
M336.002808,112.002716 
	C331.011932,111.998055 326.514923,112.131027 322.030060,111.954758 
	C316.083771,111.721039 311.879303,107.301445 312.026123,101.731270 
	C312.167633,96.362053 316.303192,92.103142 322.058563,92.056976 
	C338.693146,91.923561 355.330261,91.922180 371.964783,92.058205 
	C377.704224,92.105133 381.844055,96.395821 381.971375,101.760979 
	C382.102905,107.303772 377.863098,111.856918 371.935425,111.940979 
	C360.126373,112.108421 348.313446,111.998222 336.002808,112.002716 
z"/>
<path fill="#020202" opacity="1.000000" stroke="none" 
	d="
M377.167206,53.502388 
	C381.522522,56.794651 383.113953,60.688316 381.211792,65.548241 
	C379.324921,70.369217 375.470245,72.045349 370.501007,72.025467 
	C354.843842,71.962814 339.186188,72.032684 323.528900,71.988472 
	C316.618713,71.968956 312.157837,68.103256 312.026184,62.211853 
	C311.889771,56.107117 316.437927,52.029194 323.596008,52.010315 
	C339.253326,51.969025 354.911102,51.950451 370.567841,52.053844 
	C372.664337,52.067692 374.755829,52.842232 377.167206,53.502388 
z"/>
<path fill="#020202" opacity="1.000000" stroke="none" 
	d="
M353.999756,131.997284 
	C360.155762,131.999252 365.813812,131.908325 371.467377,132.028366 
	C377.555115,132.157608 381.840942,136.227859 381.971405,141.762634 
	C382.106476,147.494995 377.728851,151.923477 371.435333,151.962677 
	C355.133148,152.064224 338.829407,152.066299 322.527252,151.960968 
	C316.228699,151.920258 311.874176,147.481369 312.026062,141.730698 
	C312.172760,136.175476 316.433258,132.101440 322.558014,132.033615 
	C332.870819,131.919418 343.185760,131.999130 353.999756,131.997284 
z"/>
<path fill="#000000" opacity="1.000000" stroke="none" 
	d="
M42.000141,264.999542 
	C42.000431,254.175781 41.960434,243.851654 42.014423,233.528030 
	C42.053951,225.969727 45.865639,222.024979 53.309635,222.020004 
	C105.761765,221.984924 158.213928,221.985291 210.666046,222.019485 
	C218.119080,222.024338 221.958755,225.960526 221.983459,233.508469 
	C222.034714,249.160690 222.034866,264.813324 221.983368,280.465515 
	C221.958527,288.018585 218.118729,291.974670 210.685532,291.979736 
	C158.233414,292.015350 105.781250,292.015167 53.329121,291.980011 
	C45.878803,291.975037 42.085552,288.030792 42.010414,280.485504 
	C41.960670,275.490601 42.000443,270.494781 42.000141,264.999542 
M85.500031,242.000244 
	C77.741966,242.000244 69.983894,242.000244 62.324429,242.000244 
	C62.324429,252.346588 62.324429,262.074432 62.324429,271.692200 
	C109.020050,271.692200 155.390900,271.692200 201.675720,271.692200 
	C201.675720,261.653687 201.675720,251.925873 201.675720,242.000244 
	C163.068039,242.000244 124.784019,242.000244 85.500031,242.000244 
z"/>
<path fill="#000000" opacity="1.000000" stroke="none" 
	d="
M218.457870,469.574646 
	C215.483337,470.547485 212.820297,471.867340 210.140625,471.902039 
	C194.656143,472.102600 179.167633,472.030792 163.680679,471.986725 
	C155.875854,471.964539 152.034836,468.129120 152.013260,460.337036 
	C151.969910,444.683533 151.960968,429.029694 152.017960,413.376282 
	C152.045181,405.895782 155.933624,402.042023 163.461914,402.016602 
	C179.115341,401.963715 194.769180,401.966766 210.422638,402.014740 
	C218.188904,402.038544 221.967712,405.890167 221.988083,413.765167 
	C222.028137,429.252167 222.171570,444.742828 221.853363,460.223358 
	C221.790588,463.278137 219.841080,466.294159 218.457870,469.574646 
M200.223526,451.976440 
	C200.791229,451.517609 201.849487,451.063782 201.854248,450.599182 
	C201.950836,441.178192 201.926636,431.755951 201.926636,422.359528 
	C191.662766,422.359528 181.951813,422.359528 172.407745,422.359528 
	C172.407745,432.436096 172.407745,442.148865 172.407745,451.996094 
	C181.632675,451.996094 190.450912,451.996094 200.223526,451.976440 
z"/>
<path fill="#000000" opacity="1.000000" stroke="none" 
	d="
M71.000137,472.000122 
	C64.842941,471.999908 59.185314,472.041718 53.528557,471.989197 
	C45.978638,471.919098 42.048828,468.125214 42.019772,460.699738 
	C41.957916,444.893005 41.957596,429.085632 42.019943,413.278900 
	C42.049198,405.862091 45.983879,402.038300 53.543930,402.015045 
	C69.184380,401.966888 84.825211,401.965240 100.465652,402.015503 
	C108.200844,402.040375 111.968674,405.908722 111.988480,413.792389 
	C112.027344,429.266510 112.029533,444.740875 111.987694,460.214966 
	C111.965958,468.253296 108.144165,471.964600 99.952652,471.992462 
	C90.468559,472.024719 80.984283,472.000061 71.000137,472.000122 
M62.003990,449.273010 
	C62.650616,450.175232 63.282860,451.850861 63.946026,451.863190 
	C73.195221,452.035187 82.448647,451.979706 91.625084,451.979706 
	C91.625084,441.630310 91.625084,431.919312 91.625084,422.245605 
	C81.657066,422.245605 72.065353,422.245605 62.001038,422.245605 
	C62.001038,431.093109 62.001038,439.701324 62.003990,449.273010 
z"/>
<path fill="#000000" opacity="1.000000" stroke="none" 
	d="
M59.058434,382.000122 
	C56.905083,381.999939 55.240810,382.018127 53.577065,381.996399 
	C45.817863,381.895142 42.031963,378.104065 42.011829,370.247650 
	C41.972176,354.772278 41.973614,339.296661 42.010948,323.821289 
	C42.030430,315.746124 45.817329,312.025269 54.001396,312.008881 
	C69.310402,311.978210 84.619553,311.980042 99.928574,312.008118 
	C108.142426,312.023163 111.966187,315.729065 111.987724,323.756012 
	C112.029259,339.231354 112.028580,354.707001 111.988136,370.182373 
	C111.967049,378.249023 108.165596,381.971802 99.983673,381.991241 
	C86.505104,382.023285 73.026398,382.000061 59.058434,382.000122 
M62.810844,361.848480 
	C72.405617,361.848480 82.000397,361.848480 91.673294,361.848480 
	C91.673294,351.730682 91.673294,342.020477 91.673294,332.375122 
	C81.631393,332.375122 71.919617,332.375122 62.146992,332.375122 
	C62.146992,342.221863 62.146992,351.694580 62.810844,361.848480 
z"/>
<path fill="#000000" opacity="1.000000" stroke="none" 
	d="
M151.999725,346.000000 
	C151.999985,338.178864 151.958847,330.857452 152.011948,323.536713 
	C152.066757,315.981293 155.862061,312.049713 163.286163,312.020142 
	C179.092896,311.957153 194.900223,311.957489 210.706955,312.019989 
	C218.130188,312.049316 221.960663,315.981018 221.984573,323.534607 
	C222.034088,339.175018 222.036255,354.815857 221.983841,370.456268 
	C221.957886,378.196960 218.087189,381.968506 210.210510,381.988403 
	C194.736404,382.027527 179.262054,382.028442 163.787949,381.988159 
	C155.750198,381.967255 152.039459,378.146362 152.006744,369.960907 
	C151.975494,362.140717 151.999832,354.320312 151.999725,346.000000 
M201.189163,332.151520 
	C191.594376,332.151520 181.999603,332.151520 172.326675,332.151520 
	C172.326675,342.269196 172.326675,351.979431 172.326675,361.624878 
	C182.368576,361.624878 192.080368,361.624878 201.998978,361.624878 
	C201.998978,360.263611 202.003738,359.276825 201.998230,358.290100 
	C201.950867,349.804321 201.901672,341.318542 201.189163,332.151520 
z"/>
<path fill="#030201" opacity="1.000000" stroke="none" 
	d="
M390.510193,409.724304 
	C378.959259,404.230011 372.650665,395.426178 372.077881,383.001282 
	C371.484650,370.132629 377.600006,361.275543 391.998016,353.324158 
	C391.998016,350.107330 391.964172,346.782013 392.005066,343.457642 
	C392.089661,336.579254 395.961639,332.110657 401.860138,332.026947 
	C407.924866,331.940887 411.920471,336.522980 411.997711,343.683502 
	C412.026031,346.307220 412.002289,348.931519 412.002289,352.008026 
	C415.499939,352.008026 418.623749,351.907990 421.738953,352.029358 
	C427.748993,352.263489 432.012970,356.509003 431.970367,362.065094 
	C431.927795,367.615265 427.653320,371.824249 421.602051,371.962250 
	C415.276306,372.106537 408.943237,371.914917 402.616425,372.033203 
	C396.483063,372.147919 392.189331,376.179688 392.033234,381.716949 
	C391.876953,387.261566 396.015167,391.501282 402.056458,391.986053 
	C418.100372,393.273468 428.700317,402.225220 431.545715,416.889984 
	C434.159515,430.361084 427.148407,442.897736 413.075562,449.923981 
	C412.782684,450.070190 412.510590,450.257996 411.986664,450.571106 
	C411.986664,454.250732 412.115692,458.079315 411.956909,461.895905 
	C411.708740,467.861542 407.322052,472.102386 401.770355,471.971252 
	C396.398315,471.844391 392.297668,467.698730 392.037109,461.942841 
	C391.895477,458.813965 392.011871,455.673431 392.011871,451.993408 
	C388.606628,451.993408 385.494446,452.085358 382.389526,451.973877 
	C376.322693,451.756134 372.067688,447.629150 372.028137,442.062927 
	C371.988586,436.499512 376.240784,432.194489 382.256348,432.041840 
	C388.414856,431.885498 394.580841,432.052063 400.742493,431.982361 
	C407.293335,431.908295 411.715729,428.081085 411.962463,422.411407 
	C412.217834,416.542267 407.884155,412.562286 401.084259,411.919769 
	C397.643890,411.594696 394.268402,410.583282 390.510193,409.724304 
z"/>
<path fill="#FF8C8A" opacity="1.000000" stroke="none" 
	d="
M246.006683,101.998817 
	C241.208160,101.998817 236.907944,101.998817 232.305664,101.998817 
	C232.305664,88.696106 232.305664,75.654221 232.305664,62.305599 
	C245.304123,62.305599 258.346100,62.305599 271.694519,62.305599 
	C271.694519,75.304321 271.694519,88.346306 271.694519,101.998817 
	C263.332550,101.998817 254.918777,101.998817 246.006683,101.998817 
z"/>
<path fill="#59D5FF" opacity="1.000000" stroke="none" 
	d="
M86.000015,242.000244 
	C124.784019,242.000244 163.068039,242.000244 201.675720,242.000244 
	C201.675720,251.925873 201.675720,261.653687 201.675720,271.692200 
	C155.390900,271.692200 109.020050,271.692200 62.324429,271.692200 
	C62.324429,262.074432 62.324429,252.346588 62.324429,242.000244 
	C69.983894,242.000244 77.741966,242.000244 86.000015,242.000244 
z"/>
<path fill="#00DA77" opacity="1.000000" stroke="none" 
	d="
M199.746338,451.986267 
	C190.450912,451.996094 181.632675,451.996094 172.407745,451.996094 
	C172.407745,442.148865 172.407745,432.436096 172.407745,422.359528 
	C181.951813,422.359528 191.662766,422.359528 201.926636,422.359528 
	C201.926636,431.755951 201.950836,441.178192 201.854248,450.599182 
	C201.849487,451.063782 200.791229,451.517609 199.746338,451.986267 
z"/>
<path fill="#00DA77" opacity="1.000000" stroke="none" 
	d="
M62.002514,448.791290 
	C62.001038,439.701324 62.001038,431.093109 62.001038,422.245605 
	C72.065353,422.245605 81.657066,422.245605 91.625084,422.245605 
	C91.625084,431.919312 91.625084,441.630310 91.625084,451.979706 
	C82.448647,451.979706 73.195221,452.035187 63.946026,451.863190 
	C63.282860,451.850861 62.650616,450.175232 62.002514,448.791290 
z"/>
<path fill="#00DA77" opacity="1.000000" stroke="none" 
	d="
M62.478920,361.507874 
	C62.146992,351.694580 62.146992,342.221863 62.146992,332.375122 
	C71.919617,332.375122 81.631393,332.375122 91.673294,332.375122 
	C91.673294,342.020477 91.673294,351.730682 91.673294,361.848480 
	C82.000397,361.848480 72.405617,361.848480 62.478920,361.507874 
z"/>
<path fill="#00DA77" opacity="1.000000" stroke="none" 
	d="
M201.521088,332.492126 
	C201.901672,341.318542 201.950867,349.804321 201.998230,358.290100 
	C202.003738,359.276825 201.998978,360.263611 201.998978,361.624878 
	C192.080368,361.624878 182.368576,361.624878 172.326675,361.624878 
	C172.326675,351.979431 172.326675,342.269196 172.326675,332.151520 
	C181.999603,332.151520 191.594376,332.151520 201.521088,332.492126 
z"/>
</svg>